<?xml version="1.0" encoding="utf-8"?>
<!-- Generator: Adobe Illustrator 16.0.0, SVG Export Plug-In . SVG Version: 6.00 Build 0)  -->
<!DOCTYPE svg PUBLIC "-//W3C//DTD SVG 1.1//EN" "http://www.w3.org/Graphics/SVG/1.1/DTD/svg11.dtd">
<svg version="1.1" id="Calque_1" xmlns="http://www.w3.org/2000/svg" xmlns:xlink="http://www.w3.org/1999/xlink" x="0px" y="0px"
	 width="655.708px" height="171.144px" viewBox="0 0 655.708 171.144" enable-background="new 0 0 655.708 171.144"
	 xml:space="preserve">
<g>
	<defs>
		<rect id="SVGID_1_" width="655.708" height="171.144"/>
	</defs>
	<clipPath id="SVGID_2_">
		<use xlink:href="#SVGID_1_"  overflow="visible"/>
	</clipPath>
	<path clip-path="url(#SVGID_2_)" fill-rule="evenodd" clip-rule="evenodd" fill="#979A9C" d="M242.088,32.433
		c-3.852-7.41,0.236-17.179,9.134-21.8c8.901-4.62,19.239-2.366,23.09,5.057c3.849,7.414-0.236,17.177-9.135,21.801
		C256.279,42.115,245.938,39.853,242.088,32.433"/>
	<path clip-path="url(#SVGID_2_)" fill-rule="evenodd" clip-rule="evenodd" fill="#979A9C" d="M295.926,32.433
		c-3.855-7.41,0.243-17.179,9.137-21.8c8.897-4.62,19.237-2.366,23.09,5.057c3.85,7.414-0.239,17.177-9.138,21.801
		C310.123,42.115,299.778,39.853,295.926,32.433"/>
	<polygon clip-path="url(#SVGID_2_)" fill-rule="evenodd" clip-rule="evenodd" fill="#979A9C" points="625.62,51.282 
		593.303,142.203 623.22,142.203 655.709,51.344 	"/>
	<polygon clip-path="url(#SVGID_2_)" fill-rule="evenodd" clip-rule="evenodd" fill="#979A9C" points="581.762,51.215 
		551.919,51.215 519.592,142.367 583.295,142.367 589.821,124.558 556.071,124.505 	"/>
	<path clip-path="url(#SVGID_2_)" fill-rule="evenodd" clip-rule="evenodd" fill="#979A9C" d="M501.862,96.352
		c5.924-1.748,10.031-3.094,15.507-8.298c5.472-5.205,8.121-15.494,6.733-23.183c-1.34-7.433-8.959-13.589-21.787-13.609
		l-53.86,0.043l-32.244,91.011h61.968c7.78,0,13.666-1.234,19.867-3.589c6.213-2.357,12.613-7.879,15.586-17.916
		C516.773,110.194,512.857,99.952,501.862,96.352 M480.121,122.161c-1.545,0.896-4.856,1.869-11.08,1.863l-18.605-0.021
		l7.709-20.794l17.681-0.061c9.213-0.043,10.644,6.264,9.736,10.903C484.641,118.686,481.682,121.258,480.121,122.161
		 M491.419,83.598c-2.286,1.814-4.54,3.506-11.767,3.646l-16.014,0.097l6.402-19.848l16.205,0.025c4.486,0,7.424,0.663,8.838,4.232
		C496.5,75.329,493.693,81.791,491.419,83.598"/>
	<path clip-path="url(#SVGID_2_)" fill-rule="evenodd" clip-rule="evenodd" fill="#979A9C" d="M399.299,51.044l-20.964,59.247
		c-3.125,7.439-6.234,9.489-9.205,11.198c-2.972,1.702-7.208,2.507-10.351,2.369c-3.183-0.14-6.825,0.068-10.366-4.021
		c-3.303-3.817-1.441-11.714,1.297-18.219l17.973-50.575h-28.479l-19.326,54.222c-1.586,5.141-4.095,13.663-0.659,22.484
		c3.435,8.831,11.213,13.045,18.245,15.068c7.054,2.044,13.16,2.063,24.095,1.645c10.933-0.433,22.412-3.696,28.475-7.522
		c6.065-3.806,9.661-7.53,14.595-17.325l24.548-68.571H399.299z"/>
	<path clip-path="url(#SVGID_2_)" fill-rule="evenodd" clip-rule="evenodd" fill="#979A9C" d="M260.114,51.157l-62.565,91.16h26.849
		l14.055-20.213h38.331l0.812,20.213h29.126l-3.505-91.16H260.114z M252.406,101.807l22.278-32.494l1.274,32.494H252.406z"/>
	<polygon clip-path="url(#SVGID_2_)" fill-rule="evenodd" clip-rule="evenodd" fill="#979A9C" points="231.17,71.427 
		239.488,51.157 152.332,51.157 144.952,70.756 174.344,70.799 149.178,142.462 179.318,142.462 204.662,71.595 	"/>
	<path clip-path="url(#SVGID_2_)" fill-rule="evenodd" clip-rule="evenodd" fill="#979A9C" d="M161.882,39.37
		c-10.174-6.354-24.443-11.069-38.234-12.782c-13.504-1.688-33.01,2.538-35.577,16.742c-4.787,26.511,61.826,33.232,53.53,79.155
		c-7.308,40.485-47.915,52.711-89.219,47.539C34.263,167.759,14.646,160.16,0,151.676l14.218-25.805
		c11.887,7.741,27.923,15.113,44.143,17.134c18.1,2.269,36.277-3.139,40.842-20.599c6.628-25.331-64.325-33.64-54.03-79.039
		C52.998,8.871,91.302-3.631,127.475,0.889c16.494,2.065,32.671,6.494,47.064,13.865L161.882,39.37z"/>
</g>
</svg>
