<?xml version="1.0" encoding="UTF-8"?>
<svg width="24px" height="24px" viewBox="0 0 24 24" version="1.1" xmlns="http://www.w3.org/2000/svg" xmlns:xlink="http://www.w3.org/1999/xlink">
    <!-- Generator: Sketch 53.1 (72631) - https://sketchapp.com -->
    <title>icon-linkedin</title>
    <desc>Created with Sketch.</desc>
    <g id="Symbols" stroke="none" stroke-width="1" fill="none" fill-rule="evenodd">
        <g id="Vertical-Menu-/-Open" transform="translate(-100.000000, -833.000000)" fill="#FFFFFF" fill-rule="nonzero">
            <g id="Group" transform="translate(100.000000, 138.000000)">
                <g id="Social-icons" transform="translate(0.000000, 695.000000)">
                    <path d="M22.2278146,0 L1.77330143,0 C0.793856498,0 0,0.769630659 0,1.71954673 L0,22.2797279 C0,23.2296998 0.794135495,24 1.77330143,24 L22.2278146,24 C23.2070363,24 24,23.2291976 24,22.2797279 L24,1.71954673 C24,0.769909653 23.2070363,0 22.2278146,0 Z M7.27611581,20.0896312 L3.64988736,20.0896312 L3.64988736,9.25392567 L7.27611581,9.25392567 L7.27611581,20.0896312 Z M5.46336428,7.77358771 L5.43897999,7.77358771 C4.22294606,7.77358771 3.43466949,6.94196476 3.43466949,5.90081792 C3.43466949,4.83869078 4.24610277,4.02961048 5.48624199,4.02961048 C6.72649281,4.02961048 7.4893807,4.83846758 7.51348599,5.90081792 C7.51348599,6.94218796 6.7267718,7.77358771 5.46336428,7.77358771 Z M20.3476017,20.0896312 L16.722545,20.0896312 L16.722545,14.2921524 C16.722545,12.8354173 16.1973063,11.8414203 14.8863578,11.8414203 C13.8834771,11.8414203 13.2881545,12.5120083 13.0267348,13.15944 C12.9298673,13.3906695 12.9058736,13.7140785 12.9058736,14.037041 L12.9058736,20.089408 L9.28148649,20.089408 C9.28148649,20.089408 9.32891589,10.2700189 9.28148649,9.25375827 L12.9064316,9.25375827 L12.9064316,10.7899507 C13.3876446,10.0517904 14.2475675,8.99881428 16.1725872,8.99881428 C18.5585648,8.99881428 20.3476017,10.5466128 20.3476017,13.8763967 L20.3476017,20.0896312 Z M12.8958141,10.8600489 C12.9069141,10.8418489 12.9224141,10.8199489 12.9378141,10.7986489 L12.9378141,10.8600489 L12.8958141,10.8600489 Z" id="icon-linkedin"></path>
                </g>
            </g>
        </g>
    </g>
</svg>