<?xml version="1.0" encoding="UTF-8"?>
<svg width="24px" height="24px" viewBox="0 0 24 24" version="1.1" xmlns="http://www.w3.org/2000/svg" xmlns:xlink="http://www.w3.org/1999/xlink">
    <!-- Generator: Sketch 53.1 (72631) - https://sketchapp.com -->
    <title>icon-facebook</title>
    <desc>Created with Sketch.</desc>
    <g id="Symbols" stroke="none" stroke-width="1" fill="none" fill-rule="evenodd">
        <g id="Vertical-Menu-/-Open" transform="translate(-208.000000, -833.000000)" fill="#FFFFFF">
            <g id="Group" transform="translate(100.000000, 138.000000)">
                <g id="Social-icons" transform="translate(0.000000, 695.000000)">
                    <path d="M128.76587,0 L111.234072,0 C109.447979,0 108,1.44790943 108,3.23404797 L108,20.7658346 C108,22.5519731 109.44792,23.9998826 111.234072,23.9998826 L119.880671,23.9998826 L119.895407,15.423623 L117.667282,15.423623 C117.377722,15.423623 117.142703,15.189487 117.141588,14.8999286 L117.130903,12.1354443 C117.129787,11.8443007 117.36551,11.6076989 117.656656,11.6076989 L119.880729,11.6076989 L119.880729,8.93650499 C119.880729,5.83660969 121.773969,4.14869321 124.539296,4.14869321 L126.808459,4.14869321 C127.098783,4.14869321 127.334212,4.38406215 127.334212,4.6744425 L127.334212,7.00546983 C127.334212,7.29573275 127.098959,7.53104299 126.808753,7.53121912 L125.416197,7.53186493 C123.912326,7.53186493 123.621121,8.24648473 123.621121,9.29522393 L123.621121,11.6077576 L126.925646,11.6077576 C127.24051,11.6077576 127.484805,11.8826971 127.4477,12.1953873 L127.120036,14.9598716 C127.088685,15.2244195 126.864352,15.4237404 126.597982,15.4237404 L123.635857,15.4237404 L123.621121,24 L128.765987,24 C130.55208,24 132,22.5520906 132,20.7660107 L132,3.23404797 C131.999941,1.44790943 130.552021,0 128.76587,0 Z" id="icon-facebook"></path>
                </g>
            </g>
        </g>
    </g>
</svg>