<?xml version="1.0" encoding="UTF-8"?>
<svg width="24px" height="24px" viewBox="0 0 24 24" version="1.1" xmlns="http://www.w3.org/2000/svg" xmlns:xlink="http://www.w3.org/1999/xlink">
    <!-- Generator: Sketch 53.1 (72631) - https://sketchapp.com -->
    <title>icon-instagram</title>
    <desc>Created with Sketch.</desc>
    <g id="Symbols" stroke="none" stroke-width="1" fill="none" fill-rule="evenodd">
        <g id="Vertical-Menu-/-Open" transform="translate(-172.000000, -833.000000)" fill="#FFFFFF" fill-rule="nonzero">
            <g id="Group" transform="translate(100.000000, 138.000000)">
                <g id="Social-icons" transform="translate(0.000000, 695.000000)">
                    <path d="M93.6,0 L74.4,0 C73.08,0 72,1.08 72,2.4 L72,21.6 C72,22.92 73.08,24 74.4,24 L93.6,24 C94.92,24 96,22.92 96,21.6 L96,2.4 C96,1.08 94.92,0 93.6,0 Z M84,7.2 C86.64,7.2 88.8,9.36 88.8,12 C88.8,14.64 86.64,16.8 84,16.8 C81.36,16.8 79.2,14.64 79.2,12 C79.2,9.36 81.36,7.2 84,7.2 Z M75,21.6 C74.64,21.6 74.4,21.36 74.4,21 L74.4,10.8 L76.92,10.8 C76.8,11.16 76.8,11.64 76.8,12 C76.8,15.96 80.04,19.2 84,19.2 C87.96,19.2 91.2,15.96 91.2,12 C91.2,11.64 91.2,11.16 91.08,10.8 L93.6,10.8 L93.6,21 C93.6,21.36 93.36,21.6 93,21.6 L75,21.6 Z M93.6,5.4 C93.6,5.76 93.36,6 93,6 L90.6,6 C90.24,6 90,5.76 90,5.4 L90,3 C90,2.64 90.24,2.4 90.6,2.4 L93,2.4 C93.36,2.4 93.6,2.64 93.6,3 L93.6,5.4 Z" id="icon-instagram"></path>
                </g>
            </g>
        </g>
    </g>
</svg>